<svg version="1.0" xmlns="http://www.w3.org/2000/svg"
 width="500.000000pt" height="500.000000pt" viewBox="0 0 500.000000 500.000000"
 preserveAspectRatio="xMidYMid meet">

<g transform="translate(0.000000,500.000000) scale(0.100000,-0.100000)"
fill="#000000" stroke="none">
<path d="M2446 4393 c-9 -37 -14 -39 -169 -47 -257 -14 -456 -83 -572 -199
-52 -52 -125 -156 -125 -178 0 -4 46 -21 103 -38 162 -51 147 -36 147 -142 0
-82 2 -91 20 -96 22 -6 26 -18 10 -28 -6 -4 -4 -12 5 -21 8 -9 15 -19 15 -23
0 -5 -27 -25 -59 -45 -77 -47 -137 -117 -198 -228 -26 -49 -53 -94 -59 -99 -7
-6 -57 -2 -138 11 -120 19 -195 25 -185 15 3 -2 63 -14 134 -25 149 -24 165
-28 165 -41 0 -5 -10 -32 -22 -59 -24 -51 -38 -59 -98 -60 -76 -1 -251 -42
-238 -56 3 -2 18 0 34 6 30 12 246 40 253 33 3 -2 -9 -32 -26 -66 -30 -60 -33
-63 -102 -91 -71 -28 -167 -83 -159 -91 2 -2 42 15 88 39 143 74 140 76 67
-71 -36 -70 -92 -200 -125 -288 -60 -161 -96 -324 -133 -598 -14 -102 0 -239
30 -297 14 -26 17 -49 13 -88 -3 -32 -1 -52 6 -52 5 0 13 -16 16 -36 5 -25 11
-34 21 -30 8 3 17 1 20 -4 10 -16 25 -12 25 6 0 12 5 11 20 -7 l19 -24 1 60
c1 113 16 86 29 -51 15 -163 29 -221 81 -331 58 -124 124 -218 187 -265 l54
-41 -25 -16 c-36 -22 -32 -31 14 -31 22 0 57 -6 77 -14 88 -32 151 -39 305
-33 148 6 201 3 488 -29 278 -31 347 -36 415 -29 39 4 147 6 240 6 94 -1 202
3 240 8 67 10 329 35 483 47 129 10 77 24 -90 24 -90 1 -297 5 -460 10 -286 8
-298 9 -327 31 -17 13 -31 27 -31 31 0 5 40 47 88 93 104 99 175 217 229 379
59 178 67 244 67 601 1 293 -1 330 -22 440 -33 175 -58 272 -101 398 -74 213
-100 307 -85 307 7 0 39 -7 71 -15 32 -9 78 -20 103 -25 25 -5 54 -12 65 -15
17 -5 17 -5 4 4 -9 6 -72 26 -140 44 l-124 34 -19 46 c-11 26 -17 49 -15 52 3
2 88 5 190 6 101 1 173 5 159 9 -14 5 -100 8 -192 9 l-166 1 -11 32 c-14 39
-8 44 79 57 201 31 236 39 190 40 -43 1 -223 -23 -265 -34 -17 -5 -25 4 -50
62 -61 141 -182 294 -270 341 -29 16 -29 17 -7 20 19 3 21 6 11 18 -9 11 -9
14 1 14 10 0 10 3 1 14 -10 11 -8 16 8 21 19 6 21 14 21 82 l0 76 72 -8 c40
-3 80 -11 90 -16 13 -7 29 -4 59 11 62 32 184 60 261 60 62 0 68 2 68 20 0 72
-134 220 -242 268 -182 82 -365 135 -506 148 -55 5 -75 11 -79 23 -16 54 -20
57 -27 24z m-153 -552 c43 -11 85 -25 92 -31 8 -6 23 -9 33 -6 17 6 20 1 24
-31 3 -21 3 -41 1 -45 -6 -11 -94 -21 -103 -12 -5 5 -5 25 -1 46 7 27 5 38 -5
42 -9 4 -14 -9 -16 -47 -3 -46 -5 -52 -23 -49 -134 20 -215 10 -215 -28 0 -13
-7 -20 -19 -20 -11 0 -28 -3 -38 -6 -16 -5 -16 -4 1 10 11 9 14 16 7 16 -7 0
-9 5 -6 10 3 6 -2 10 -11 10 -15 0 -15 3 5 21 23 22 23 30 -5 98 -8 18 -14 38
-14 44 0 16 204 1 293 -22z m251 -41 c-15 -38 -15 -42 1 -60 24 -26 14 -34
-30 -26 -35 7 -35 7 -35 61 0 56 2 59 62 64 17 1 17 -1 2 -39z m-571 -421 c29
-13 57 -68 57 -109 0 -75 -100 -123 -168 -81 -116 73 -14 247 111 190z m741 1
c56 -21 75 -126 31 -174 -32 -35 -101 -37 -140 -3 -38 33 -45 101 -15 140 35
44 75 56 124 37z m-969 -325 c98 -25 196 -79 274 -151 69 -64 117 -121 109
-129 -2 -3 -36 -11 -76 -20 -155 -32 -324 -119 -414 -212 -57 -58 -136 -198
-163 -288 -72 -240 -105 -625 -70 -812 17 -89 52 -198 83 -258 23 -47 177
-214 216 -234 36 -20 40 -43 16 -91 -15 -28 -32 -46 -57 -56 -34 -15 -37 -14
-68 8 -104 75 -208 267 -251 463 -22 99 -29 379 -15 580 14 192 37 335 82 510
43 167 42 165 31 165 -48 0 -128 -340 -161 -680 -6 -69 -13 -94 -37 -130 -16
-25 -38 -65 -50 -90 -19 -41 -21 -43 -31 -25 -18 33 -43 169 -43 233 0 142 61
460 116 608 55 148 207 465 234 488 20 17 196 66 238 66 23 0 32 5 32 16 0 18
-35 15 -162 -17 -42 -10 -79 -19 -82 -19 -4 0 3 18 14 39 12 25 28 41 42 44
51 10 137 6 193 -8z m733 -118 c2 -12 -3 -17 -17 -17 -23 0 -24 1 -15 25 8 19
28 15 32 -8z m-228 -222 c0 -40 37 -103 70 -120 37 -19 61 -19 107 0 48 20 55
10 15 -21 -40 -32 -47 -81 -9 -69 72 23 70 23 127 -72 29 -48 72 -110 96 -138
l42 -50 -24 -18 c-36 -27 -77 -85 -71 -102 5 -12 12 -13 54 0 46 14 49 14 83
-10 44 -30 60 -32 60 -5 0 11 3 20 6 20 16 0 73 -55 76 -73 2 -13 9 -21 18
-19 26 6 79 -31 85 -60 8 -35 25 -46 40 -25 11 15 16 15 63 -5 62 -26 62 -28
52 -207 -13 -206 -28 -303 -61 -396 -68 -188 -170 -308 -379 -446 -188 -125
-470 -154 -695 -73 -145 52 -203 90 -331 218 -171 172 -197 223 -229 452 -17
119 -18 147 -6 305 25 349 72 505 200 667 66 83 226 194 327 227 64 21 186 43
242 44 39 1 42 -1 42 -24z m138 9 c23 -5 30 -11 30 -28 -4 -65 -78 -60 -94 7
-7 30 3 33 64 21z"/>
<path d="M1894 3306 c-10 -26 4 -48 28 -44 17 2 23 10 23 28 0 18 -6 26 -23
28 -13 2 -25 -3 -28 -12z"/>
<path d="M2640 3316 c-17 -21 -8 -60 14 -64 18 -4 46 21 46 39 0 10 -29 39
-39 39 -5 0 -14 -7 -21 -14z"/>
<path d="M2078 2553 c-39 -40 -63 -89 -49 -98 5 -2 35 7 67 21 55 24 68 25
122 9 32 -10 28 10 -10 61 -44 58 -79 60 -130 7z m116 -10 c14 -20 24 -38 22
-40 -2 -2 -14 1 -28 6 -19 7 -39 4 -84 -15 -69 -28 -64 -27 -64 -11 0 7 19 31
41 55 52 54 80 55 113 5z"/>
<path d="M1745 2499 c-25 -23 -45 -50 -45 -60 0 -24 1 -24 60 6 41 21 53 23
79 14 17 -6 38 -8 47 -5 30 12 -17 64 -73 81 -17 5 -32 -3 -68 -36z m115 -4
c29 -31 23 -38 -18 -23 -29 11 -38 10 -78 -11 -24 -13 -46 -22 -49 -19 -2 2
12 21 31 41 44 45 80 48 114 12z"/>
<path d="M2343 2287 c-36 -20 -103 -121 -89 -134 3 -4 31 5 61 19 49 22 61 24
100 15 72 -16 76 1 18 62 -53 55 -57 57 -90 38z m76 -39 c46 -48 51 -63 19
-54 -66 19 -78 18 -124 -8 -57 -32 -58 -32 -43 -3 13 25 89 107 100 107 4 0
25 -19 48 -42z"/>
<path d="M1958 2172 c-44 -47 -66 -87 -54 -99 3 -3 33 7 67 22 60 26 63 27 96
11 62 -30 81 -14 46 42 -55 89 -90 94 -155 24z m109 16 c32 -36 56 -78 49 -85
-4 -4 -20 1 -35 10 -38 22 -58 21 -110 -4 -24 -11 -45 -18 -48 -15 -19 18 69
116 105 116 10 0 28 -10 39 -22z"/>
<path d="M1578 2123 c-33 -37 -68 -96 -68 -117 0 -20 24 -21 40 -1 7 9 26 25
42 36 25 18 33 19 64 9 19 -7 42 -9 50 -6 13 5 13 9 -1 36 -15 29 -68 70 -91
70 -5 0 -22 -12 -36 -27z m87 -14 c45 -40 47 -62 5 -47 -39 13 -67 5 -110 -31
-19 -17 -36 -29 -38 -27 -13 14 80 136 103 136 3 0 20 -14 40 -31z"/>
</g>
</svg>
