<svg version="1.0" xmlns="http://www.w3.org/2000/svg"
 width="649.000000pt" height="384.000000pt" viewBox="0 0 649.000000 384.000000"
 preserveAspectRatio="xMidYMid meet">

<g transform="translate(0.000000,384.000000) scale(0.100000,-0.100000)"
fill="#000000" stroke="none">
<path d="M3879 3453 c-24 -37 -48 -71 -53 -74 -4 -4 -6 -13 -4 -20 3 -9 9 -6
17 11 23 45 86 140 92 140 4 0 11 -26 17 -57 7 -43 10 -49 10 -23 0 44 -10 82
-24 87 -6 2 -31 -27 -55 -64z"/>
<path d="M3790 3459 c0 -4 7 -22 15 -40 8 -19 14 -27 14 -19 0 14 -28 72 -29
59z"/>
<path d="M3982 3388 c-7 -7 -12 -8 -13 -2 0 5 -7 -12 -14 -38 -11 -41 -10 -53
7 -105 38 -110 11 -220 -62 -258 -62 -32 -180 -12 -214 36 -9 13 -16 19 -16
13 0 -16 41 -51 73 -63 41 -16 127 -13 162 5 24 12 34 13 52 3 28 -15 90 -5
123 19 14 11 31 37 39 58 8 21 16 41 18 43 6 8 181 -43 278 -81 438 -173 764
-526 913 -988 17 -52 35 -108 41 -125 l11 -30 -6 35 c-25 151 -170 468 -284
620 -211 281 -460 455 -810 567 -80 25 -151 50 -157 56 -14 11 -16 4 -13 -55
3 -64 -54 -118 -124 -118 -36 0 -39 13 -15 60 19 36 21 52 16 126 -3 48 -1 81
4 78 5 -3 9 6 9 19 0 14 7 44 15 67 8 24 14 44 12 46 -8 8 -26 -15 -35 -46
l-10 -35 -1 36 c-1 19 4 40 11 47 6 6 9 14 7 17 -3 2 -11 -1 -17 -7z"/>
<path d="M3756 3281 c-4 -7 -5 -15 -2 -18 9 -9 19 4 14 18 -4 11 -6 11 -12 0z"/>
<path d="M3885 3270 c-3 -5 -1 -10 4 -10 6 0 11 5 11 10 0 6 -2 10 -4 10 -3 0
-8 -4 -11 -10z"/>
<path d="M3915 3241 c-8 -26 -40 -27 -54 -3 -6 9 -11 12 -11 7 0 -17 22 -35
42 -35 17 0 45 37 35 47 -3 2 -8 -5 -12 -16z"/>
<path d="M3737 3224 c7 -19 45 -15 50 6 4 13 3 13 -6 0 -8 -12 -14 -13 -30 -3
-17 11 -19 10 -14 -3z"/>
<path d="M4061 3164 c0 -11 3 -14 6 -6 3 7 2 16 -1 19 -3 4 -6 -2 -5 -13z"/>
<path d="M3425 3140 c-176 -36 -286 -75 -445 -156 -205 -104 -363 -238 -471
-399 -24 -35 -47 -65 -51 -65 -6 0 8 53 27 105 14 35 -93 -76 -140 -146 -25
-37 -48 -75 -51 -85 -4 -11 12 10 36 45 45 69 101 141 111 141 3 0 4 -25 1
-55 -3 -31 0 -55 5 -55 5 0 31 33 57 74 158 250 458 451 806 540 109 27 317
59 332 50 4 -3 8 4 8 15 0 18 -6 21 -42 20 -24 0 -106 -13 -183 -29z"/>
<path d="M935 2826 c-105 -36 -151 -56 -153 -68 -7 -36 19 -30 156 34 24 11
45 18 48 15 7 -7 -22 -63 -91 -178 -30 -51 -53 -94 -50 -97 3 -3 24 3 47 12
24 10 93 38 153 62 105 42 135 62 135 91 0 20 -20 16 -120 -27 -51 -23 -95
-38 -99 -35 -6 7 32 79 95 178 24 37 40 67 36 66 -4 -1 -74 -24 -157 -53z"/>
<path d="M2866 2725 c-3 -9 -6 -22 -5 -28 0 -7 5 -1 10 12 5 13 8 26 5 28 -2
2 -6 -3 -10 -12z"/>
<path d="M2809 2703 c-13 -16 -12 -17 4 -4 16 13 21 21 13 21 -2 0 -10 -8 -17
-17z"/>
<path d="M2779 2663 c-13 -16 -12 -17 4 -4 16 13 21 21 13 21 -2 0 -10 -8 -17
-17z"/>
<path d="M2862 2640 c0 -14 2 -19 5 -12 2 6 2 18 0 25 -3 6 -5 1 -5 -13z"/>
<path d="M2744 2594 c-14 -56 32 -94 137 -114 85 -16 179 -10 179 11 0 5 -16
9 -36 9 -49 0 -107 34 -133 79 l-22 36 6 -63 c6 -58 5 -63 -12 -58 -10 3 -30
8 -45 11 -42 11 -72 49 -65 85 8 36 0 40 -9 4z"/>
<path d="M1242 2527 c-21 -8 -29 -16 -23 -22 7 -7 -3 -33 -29 -78 -22 -37 -34
-67 -27 -67 27 0 167 63 167 76 0 10 -13 9 -55 -8 -56 -21 -76 -20 -58 4 13
17 65 108 61 107 -2 0 -18 -6 -36 -12z"/>
<path d="M2589 2513 c-13 -16 -12 -17 4 -4 16 13 21 21 13 21 -2 0 -10 -8 -17
-17z"/>
<path d="M1965 2508 c-11 -6 -49 -39 -85 -73 -67 -64 -200 -137 -348 -191 -89
-32 -144 -67 -222 -140 -193 -182 -304 -451 -318 -769 -7 -145 -8 -150 -29
-153 l-22 -3 21 -44 c21 -43 21 -45 4 -64 -21 -24 -97 -51 -141 -51 -92 0
-300 -81 -402 -157 -104 -77 -165 -158 -150 -196 3 -8 27 -22 54 -31 212 -69
555 -67 826 6 l79 21 42 -21 c111 -56 409 -97 636 -89 168 6 288 26 418 69 92
31 94 31 145 15 70 -21 140 -34 277 -53 156 -21 819 -31 1039 -15 184 13 362
36 406 52 17 7 114 14 218 17 175 4 187 6 187 23 0 14 7 19 25 19 32 0 31 11
0 49 -31 36 -79 67 -149 95 l-51 21 355 0 c366 1 481 8 705 47 153 26 254 58
330 104 l60 36 108 -4 c117 -5 130 2 80 42 -20 16 -24 23 -15 32 35 35 -16 78
-125 104 -40 10 -73 21 -73 24 0 4 17 15 39 24 31 15 53 17 115 11 42 -4 76
-3 76 1 -2 21 -79 86 -110 93 -29 6 -40 17 -71 70 -73 127 -163 209 -304 276
-96 46 -108 44 -20 -3 98 -52 159 -96 224 -161 61 -61 121 -163 121 -205 0
-26 -3 -25 -82 37 -171 133 -233 177 -319 224 l-87 48 -7 53 c-4 30 -4 56 -1
59 3 3 -1 12 -9 19 -7 7 -16 32 -20 54 -4 23 -9 39 -11 37 -3 -3 4 -51 16
-107 11 -57 19 -105 17 -107 -2 -2 -20 4 -40 12 -72 30 -175 38 -269 22 -112
-19 -178 -50 -281 -131 -250 -195 -672 -367 -840 -342 -29 5 -65 21 -101 47
-126 91 -381 196 -499 207 -32 2 -60 8 -62 12 -8 13 112 33 170 28 30 -3 55
-1 55 4 0 15 -103 57 -166 69 -67 13 -192 5 -299 -17 -151 -32 -375 -121 -483
-191 -31 -21 -62 -42 -69 -46 -10 -6 -11 24 -6 135 13 307 -55 593 -194 811
-24 37 -43 75 -43 84 0 9 -3 13 -6 10 -4 -3 -36 21 -73 54 -36 34 -83 70 -103
80 -41 21 -112 25 -143 7z m194 -79 c28 -26 41 -45 41 -63 0 -14 4 -26 10 -26
5 0 7 8 3 18 -12 32 44 -27 90 -97 60 -90 91 -155 105 -221 23 -112 53 -358
59 -489 l6 -136 -31 -33 c-40 -43 -65 -111 -98 -269 -59 -286 -97 -332 -328
-396 -70 -19 -106 -22 -271 -22 -167 0 -200 3 -274 23 -168 46 -307 143 -363
253 -15 30 -28 49 -28 43 0 -34 25 -135 46 -182 13 -30 24 -56 24 -59 0 -17
-165 -60 -345 -89 -110 -18 -505 -27 -520 -12 -12 12 24 65 74 111 102 91 365
206 493 214 72 5 80 4 131 -25 64 -36 75 -28 53 36 -38 105 -45 273 -20 441
51 349 264 667 513 766 138 55 292 137 324 172 17 20 48 52 67 72 33 34 35 35
38 14 4 -25 36 -32 49 -10 4 7 19 18 33 24 29 13 50 2 119 -58z m3201 -779
c36 -12 92 -38 125 -58 104 -63 288 -253 309 -320 10 -30 -28 -95 -73 -126
-69 -48 -182 -83 -355 -110 -162 -26 -726 -62 -726 -46 0 3 16 14 34 24 19 10
45 30 58 44 l23 24 -40 -20 c-109 -55 -288 -86 -441 -76 -62 3 -116 9 -121 13
-5 3 -25 29 -46 57 -20 28 -57 70 -82 93 -25 23 -45 43 -45 44 0 2 15 1 34 -1
81 -9 281 39 431 105 141 61 260 138 469 300 37 30 122 64 186 77 56 11 196
-2 260 -24z m-1928 -101 c42 -9 49 -13 33 -20 -11 -4 -32 -8 -46 -8 -38 -1
-121 -28 -144 -46 -20 -16 -19 -16 4 -11 66 14 304 -57 441 -132 193 -105 346
-249 418 -393 43 -85 47 -101 44 -175 l-2 -42 -62 -11 c-152 -27 -500 -40
-593 -22 -33 7 -37 9 -20 16 70 28 147 66 144 70 -3 2 -47 -4 -99 -15 -52 -11
-171 -25 -265 -32 -150 -10 -187 -9 -310 6 -170 21 -363 59 -467 92 -71 23
-80 28 -103 69 -36 60 -44 163 -20 237 19 60 92 138 190 202 227 152 654 258
857 215z"/>
<path d="M1714 2075 c-43 -87 -48 -140 -18 -201 20 -41 74 -84 107 -84 17 0
15 5 -15 38 -51 56 -56 127 -22 290 12 56 -13 36 -52 -43z"/>
<path d="M2071 1854 c0 -11 3 -14 6 -6 3 7 2 16 -1 19 -3 4 -6 -2 -5 -13z"/>
<path d="M1954 1765 c-51 -111 -110 -297 -128 -404 -16 -94 -20 -265 -8 -309
4 -13 7 37 8 110 1 107 6 156 28 252 28 122 78 274 121 371 13 30 22 55 19 55
-3 0 -21 -34 -40 -75z"/>
<path d="M2162 1678 c-2 -172 15 -347 45 -465 20 -83 28 -75 9 8 -19 82 -35
240 -45 454 l-8 170 -1 -167z"/>
<path d="M2056 1798 c-36 -198 -56 -502 -39 -622 6 -47 8 -20 10 125 1 103 11
259 22 354 18 158 22 220 7 143z"/>
<path d="M1150 2493 c-19 -8 -30 -17 -24 -20 7 -2 27 5 45 16 40 25 29 27 -21
4z"/>
<path d="M2471 2368 c-10 -28 1 -53 32 -70 34 -19 215 -15 252 5 l30 16 -58 1
c-61 0 -87 9 -126 44 l-24 21 7 -44 7 -44 -48 6 c-55 6 -76 27 -63 63 5 13 7
24 4 24 -2 0 -8 -10 -13 -22z"/>
<path d="M2980 2290 c-9 -6 -10 -10 -3 -10 6 0 15 5 18 10 8 12 4 12 -15 0z"/>
<path d="M1025 2205 l-30 -14 28 6 29 6 -22 -43 c-12 -23 -19 -44 -17 -47 3
-2 25 5 49 16 41 20 41 21 11 16 -39 -5 -39 -3 -12 41 23 38 14 43 -36 19z"/>
<path d="M2855 2180 c-10 -11 -16 -22 -14 -24 2 -2 12 7 22 20 22 29 17 32 -8
4z"/>
<path d="M2952 2180 c0 -14 2 -19 5 -12 2 6 2 18 0 25 -3 6 -5 1 -5 -13z"/>
<path d="M2660 2148 c-12 -22 -12 -22 6 -6 10 10 15 20 12 24 -4 3 -12 -5 -18
-18z"/>
<path d="M2966 2123 c4 -15 11 -36 16 -45 7 -14 5 -18 -9 -18 -38 0 -97 23
-120 46 -20 20 -24 21 -21 7 6 -36 124 -73 232 -73 78 0 90 16 22 30 -43 9
-66 20 -92 47 l-35 34 7 -28z"/>
<path d="M2632 2040 c0 -19 2 -27 5 -17 2 9 2 25 0 35 -3 9 -5 1 -5 -18z"/>
<path d="M2566 2038 c-44 -68 -26 -108 57 -133 58 -17 153 -20 162 -5 4 6 -6
10 -23 10 -35 0 -92 37 -109 70 l-13 25 0 -23 c0 -13 5 -32 11 -44 15 -28 7
-31 -41 -17 -58 17 -69 45 -41 98 22 44 21 55 -3 19z"/>
<path d="M710 1143 c-36 -15 -90 -40 -120 -56 -56 -30 -200 -133 -200 -143 0
-7 9 -1 98 63 75 54 185 111 277 144 28 9 41 18 30 18 -11 0 -49 -11 -85 -26z"/>
<path d="M354 908 l-19 -23 23 19 c21 18 27 26 19 26 -2 0 -12 -10 -23 -22z"/>
</g>
</svg>
